<svg width="229" height="230" xmlns="http://www.w3.org/2000/svg">
  <path stroke="#f2b44f" id="svg_1" d="m17,114.999997l0,0c0,-53.019329 43.652244,-95.999997 97.500004,-95.999997l0,0c25.858598,0 50.658116,10.11425 68.9429,28.117742c18.284804,18.003498 28.557103,42.421465 28.557103,67.882255l0,0c0,53.019323 -43.652244,95.999997 -97.500004,95.999997l0,0c-53.847754,0 -97.500004,-42.980674 -97.500004,-95.999997zm48.750002,0l0,0c0,26.509658 21.826135,47.999999 48.750002,47.999999c26.923887,0 48.750002,-21.49034 48.750002,-47.999999c0,-26.509658 -21.826128,-47.999999 -48.750002,-47.999999l0,0c-26.923867,0 -48.750002,21.490347 -48.750002,47.999999z" stroke-width="2" fill="#f2b44f"/>
</svg>