<svg xmlns="http://www.w3.org/2000/svg" xmlns:se="http://svg-edit.googlecode.com"
     xmlns:xlink="http://www.w3.org/1999/xlink" xmlns:dc="http://purl.org/dc/elements/1.1/"
     xmlns:cc="http://creativecommons.org/ns#" xmlns:rdf="http://www.w3.org/1999/02/22-rdf-syntax-ns#"
     xmlns:inkscape="http://www.inkscape.org/namespaces/inkscape" width="200" height="188.40579706138737" style="">
    <title>my vector image
    </title>                                    <!-- Created with Vector Paint - http://www.vectorpaint.yaks.com/ https://chrome.google.com/webstore/detail/hnbpdiengicdefcjecjbnjnoifekhgdo -->
    <g class="currentLayer" style="">
        <title>Layer 1</title>
        <path fill="#1a4397" fill-opacity="1" stroke="#ffffff" stroke-opacity="1" stroke-width="6"
              stroke-dasharray="none" stroke-linejoin="round" stroke-linecap="butt" stroke-dashoffset=""
              fill-rule="nonzero" opacity="1" marker-start="" marker-mid="" marker-end=""
              d="M12.655078709125519,43.608697295188904 C12.655078709125519,27.03411165982979 26.751763791998428,13.608697295188904 44.15507870912552,13.608697295188904 C61.55839362625261,13.608697295188904 75.65507870912552,27.03411165982979 75.65507870912552,43.608697295188904 C75.65507870912552,60.18328293054802 61.55839362625261,73.6086972951889 44.15507870912552,73.6086972951889 C26.751763791998428,73.6086972951889 12.655078709125519,60.18328293054802 12.655078709125519,43.608697295188904 z"
              id="svg_1" class=""/>
        <path fill="#1a4397" fill-opacity="1" stroke="#ffffff" stroke-opacity="1" stroke-width="6"
              stroke-dasharray="none" stroke-linejoin="round" stroke-linecap="butt" stroke-dashoffset=""
              fill-rule="nonzero" opacity="1" marker-start="" marker-mid="" marker-end=""
              d="M120.33624178171158,42.594202756881714 C120.33624178171158,26.0196171215226 134.4329268645845,12.594202756881714 151.83624178171158,12.594202756881714 C169.23955669883867,12.594202756881714 183.33624178171158,26.0196171215226 183.33624178171158,42.594202756881714 C183.33624178171158,59.16878839224083 169.23955669883867,72.59420275688171 151.83624178171158,72.59420275688171 C134.4329268645845,72.59420275688171 120.33624178171158,59.16878839224083 120.33624178171158,42.594202756881714 z"
              class="" id="svg_5"/>
        <path fill="#1a4397" fill-opacity="1" stroke="#1a4397" stroke-opacity="1" stroke-width="6"
              stroke-dasharray="none" stroke-linejoin="round" stroke-linecap="butt" stroke-dashoffset=""
              fill-rule="nonzero" opacity="1" marker-start="" marker-mid="" marker-end=""
              d="M164.04638373851776,60.101449966430664 C164.04638373851776,60.101449966430664 164.04638373851776,60.101449966430664 164.04638373851776,60.101449966430664 C164.04638373851776,60.101449966430664 164.04638373851776,60.101449966430664 164.04638373851776,60.101449966430664 C164.04638373851776,60.101449966430664 164.04638373851776,60.101449966430664 164.04638373851776,60.101449966430664 C164.04638373851776,60.101449966430664 164.04638373851776,60.101449966430664 164.04638373851776,60.101449966430664 z"
              id="svg_2" class=""/>
        <path fill="#1a4397" fill-opacity="1" stroke="#ffffff" stroke-opacity="1" stroke-width="6"
              stroke-dasharray="none" stroke-linejoin="round" stroke-linecap="butt" stroke-dashoffset=""
              fill-rule="nonzero" opacity="1" marker-start="" marker-mid="" marker-end="" id="svg_3"
              d="M120.56521782907475,86.91305249259662 " style="color: rgb(0, 0, 0);" class=""/>
        <path fill="#1a4397" fill-opacity="1" stroke="#ffffff" stroke-opacity="1" stroke-width="6"
              stroke-dasharray="none" stroke-linejoin="round" stroke-linecap="butt" stroke-dashoffset=""
              fill-rule="nonzero" opacity="1" marker-start="" marker-mid="" marker-end="" id="svg_6"
              d="M24.18840590185704,210.1014587153561 " style="color: rgb(0, 0, 0);" class=""/>
        <path fill="#1a4397" fill-opacity="1" stroke="#ffffff" stroke-opacity="1" stroke-width="6"
              stroke-dasharray="none" stroke-linejoin="round" stroke-linecap="butt" stroke-dashoffset=""
              fill-rule="nonzero" opacity="1" marker-start="" marker-mid="" marker-end="" id="svg_7"
              d="M30.710145054826683,233.2898645925814 " style="color: rgb(0, 0, 0);" class=""/>
        <path fill="#1a4397" fill-opacity="1" stroke="#ffffff" stroke-opacity="1" stroke-width="6"
              stroke-dasharray="none" stroke-linejoin="round" stroke-linecap="butt" stroke-dashoffset=""
              fill-rule="nonzero" opacity="1" marker-start="" marker-mid="" marker-end="" id="svg_8"
              d="M26.36231895284692,255.75363278614344 " style="color: rgb(0, 0, 0);" class=""/>
        <path fill="#1a4397" fill-opacity="1" stroke="#ffffff" stroke-opacity="1" stroke-width="6"
              stroke-dasharray="none" stroke-linejoin="round" stroke-linecap="butt" stroke-dashoffset=""
              fill-rule="nonzero" opacity="1" marker-start="" marker-mid="" marker-end="" id="svg_9"
              d="M8.24637686126465,256.4782704698067 " style="color: rgb(0, 0, 0);" class=""/>
        <path fill="#1a4397" fill-opacity="1" stroke="#ffffff" stroke-opacity="1" stroke-width="6"
              stroke-dasharray="none" stroke-linejoin="round" stroke-linecap="butt" stroke-dashoffset=""
              fill-rule="nonzero" opacity="1" marker-start="" marker-mid="" marker-end="" id="svg_10"
              d="M1.0000000246317313,263.72464730643964 C40.13043494244948,263.72464730643964 39.40579725878615,262.27537193911303 39.04638373851779,261.9565224301988 "
              style="color: rgb(0, 0, 0);" class=""/>
        <path fill="#1a4397" stroke="#ffffff" stroke-width="6" stroke-linejoin="round" stroke-dashoffset=""
              fill-rule="nonzero" marker-start="" marker-mid="" marker-end=""
              d="M127.52818057008801,76.15195080696378 L180.66730088220555,76.15195080696378 L180.66730088220555,76.15195080696378 C184.19076250433028,76.15195080696378 187.56989323430116,77.55163332990256 190.0613457789795,80.04308854940996 C192.55279832366062,82.53454376891793 193.95248619625295,85.91368252335221 193.95248619625295,89.43713077135843 L193.95248619625295,155.86144174717356 C193.95248619625295,155.86180017374693 193.9521759165226,155.86210242899034 193.95181748995464,155.86210242899034 L114.24299793086783,155.86144174717356 L114.24299793086783,155.86144174717356 C114.24263415464543,155.86144174717356 114.24232922457253,155.8611475164039 114.24232922457253,155.86077304087507 L114.24299793086783,89.43713344618237 L114.24299793086783,89.43713344618237 C114.24299793086783,82.09993014833955 120.1909692477688,76.15195348179245 127.52818057008801,76.15195348179245 L127.52818057008801,76.15195080696378 z"
              style="color: rgb(0, 0, 0);" class="" id="svg_13"/>
        <path fill="#1a4397" stroke="#ffffff" stroke-width="6" stroke-linejoin="round" stroke-dashoffset=""
              fill-rule="nonzero" marker-start="" marker-mid="" marker-end="" id="svg_12"
              d="M19.412243515930754,77.4563067263249 L72.5513638280483,77.4563067263249 L72.5513638280483,77.4563067263249 C76.07482545017302,77.4563067263249 79.4539561801439,78.85598924926367 81.94540872482224,81.34744446877107 C84.43686126950337,83.83889968827904 85.83654914209569,87.21803844271332 85.83654914209569,90.74148669071954 L85.83654914209569,157.16579766653464 C85.83654914209569,157.16615609310807 85.83623886236535,157.16645834835145 85.83588043579738,157.16645834835145 L6.127060876710573,157.16579766653464 L6.127060876710573,157.16579766653464 C6.1266971004881725,157.16579766653464 6.126392170415272,157.16550343576503 6.126392170415272,157.16512896023616 L6.127060876710573,90.74148936554349 L6.127060876710573,90.74148936554349 C6.127060876710573,83.40428606770067 12.075032193611548,77.45630940115356 19.412243515930754,77.45630940115356 L19.412243515930754,77.4563067263249 z"
              style="color: rgb(0, 0, 0);" class=""/>
        <path fill="#1a4397" stroke="#ffffff" stroke-width="6" stroke-linejoin="round" stroke-dashoffset=""
              fill-rule="nonzero" marker-start="" marker-mid="" marker-end=""
              d="M73.43077448078213,94.55775651394163 L126.56989479289967,94.55775651394163 L126.56989479289967,94.55775651394163 C130.0933564150244,94.55775651394163 133.47248714499528,95.9574390368804 135.96393968967362,98.4488942563878 C138.45539223435475,100.94034947589577 139.85508010694707,104.31948823033005 139.85508010694707,107.84293647833627 L139.85508010694707,174.26724745415137 C139.85508010694707,174.2676058807248 139.85476982721673,174.26790813596818 139.85441140064876,174.26790813596818 L60.14559184156195,174.26724745415137 L60.14559184156195,174.26724745415137 C60.14522806533955,174.26724745415137 60.14492313526665,174.26695322338176 60.14492313526665,174.2665787478529 L60.14559184156195,107.84293915316022 L60.14559184156195,107.84293915316022 C60.14559184156195,100.5057358553174 66.09356315846293,94.55775918877029 73.43077448078213,94.55775918877029 L73.43077448078213,94.55775651394163 z"
              style="color: rgb(0, 0, 0);" class="" id="svg_11"/>
        <path fill="#1a4397" fill-opacity="1" stroke="#ffffff" stroke-opacity="1" stroke-width="6"
              stroke-dasharray="none" stroke-linejoin="round" stroke-linecap="butt" stroke-dashoffset=""
              fill-rule="nonzero" opacity="1" marker-start="" marker-mid="" marker-end=""
              d="M66.71305322647095,59.985505402088165 C66.71305322647095,43.41091976672905 80.80973830934386,29.985505402088165 98.21305322647095,29.985505402088165 C115.61636814359804,29.985505402088165 129.71305322647095,43.41091976672905 129.71305322647095,59.985505402088165 C129.71305322647095,76.56009103744728 115.61636814359804,89.98550540208817 98.21305322647095,89.98550540208817 C80.80973830934386,89.98550540208817 66.71305322647095,76.56009103744728 66.71305322647095,59.985505402088165 z"
              class="" id="svg_4"/>
    </g>
</svg>
